<svg id="svg" xmlns="http://www.w3.org/2000/svg" xmlns:xlink="http://www.w3.org/1999/xlink" width="400" height="365.7992565055762" viewBox="0, 0, 400,365.7992565055762"><g id="svgg"><path id="path0" d="M149.651 18.735 C 3.818 45.080,-37.107 236.937,85.191 320.930 C 138.311 357.412,232.419 362.393,292.066 331.878 C 425.469 263.632,407.934 66.557,264.606 23.245 C 240.567 15.980,178.400 13.542,149.651 18.735 M215.037 36.948 C 338.403 69.263,370.936 225.040,270.528 302.654 C 175.439 376.156,34.697 309.916,30.141 189.517 C 26.325 88.698,119.401 11.896,215.037 36.948 M155.390 48.268 C 94.656 59.373,47.218 112.158,43.572 172.693 C 42.717 186.884,42.746 187.045,46.560 189.545 C 54.088 194.477,59.457 188.762,59.505 175.766 C 59.701 122.859,109.425 69.913,163.810 64.702 C 183.815 62.785,187.361 61.233,187.361 54.399 C 187.361 46.147,177.418 44.241,155.390 48.268 M312.827 68.030 L 318.751 72.119 312.360 72.585 C 306.217 73.032,298.885 68.997,298.885 65.168 C 298.885 62.464,307.252 64.181,312.827 68.030 M166.543 97.906 L 166.543 108.079 160.223 109.969 C 90.744 130.746,89.526 241.019,158.554 261.086 L 166.543 263.408 166.543 272.968 L 166.543 282.528 183.643 282.528 L 200.743 282.528 200.743 274.318 C 200.743 265.209,199.737 266.112,215.613 260.989 C 225.295 257.866,236.746 250.716,243.566 243.535 L 248.471 238.372 234.931 226.011 L 221.392 213.650 217.028 218.427 C 189.680 248.369,139.982 217.997,148.538 176.571 C 155.542 142.663,194.080 128.882,217.212 152.014 C 222.599 157.400,221.766 157.754,236.159 143.967 L 248.084 132.543 240.276 125.159 C 231.486 116.845,220.787 110.917,209.272 107.978 L 201.487 105.992 201.044 96.862 L 200.602 87.732 183.572 87.732 L 166.543 87.732 166.543 97.906 M336.743 93.293 C 342.033 98.999,341.600 99.628,332.380 99.628 C 324.615 99.628,319.703 95.912,319.703 90.037 C 319.703 86.977,333.295 89.575,336.743 93.293 M353.122 120.372 C 356.292 126.504,356.421 126.394,346.051 126.394 C 337.088 126.394,330.225 120.828,334.239 116.815 C 337.428 113.626,350.950 116.173,353.122 120.372 M361.923 146.590 C 364.147 152.386,363.115 153.160,353.160 153.160 C 345.807 153.160,343.494 152.655,343.494 151.051 C 343.494 149.891,343.088 147.884,342.592 146.590 C 341.826 144.594,343.152 144.238,351.355 144.238 C 358.797 144.238,361.228 144.779,361.923 146.590 M365.799 175.465 L 365.799 179.926 356.134 179.926 L 346.468 179.926 346.468 175.465 L 346.468 171.004 356.134 171.004 L 365.799 171.004 365.799 175.465 M365.249 201.115 C 364.756 202.955,364.344 204.963,364.333 205.576 C 364.321 206.190,359.891 206.691,354.488 206.691 C 346.140 206.691,344.799 206.338,345.566 204.339 C 346.062 203.046,346.468 201.038,346.468 199.878 C 346.468 198.270,348.805 197.770,356.307 197.770 C 365.785 197.770,366.113 197.892,365.249 201.115 M359.278 227.773 C 358.046 233.934,358.566 233.676,348.399 233.161 L 339.576 232.714 340.834 227.881 C 342.080 223.095,342.180 223.048,351.158 223.048 L 360.223 223.048 359.278 227.773 M349.442 251.714 C 349.442 257.179,344.891 260.223,336.719 260.223 C 327.681 260.223,327.745 260.289,330.893 254.201 C 333.386 249.381,349.442 247.228,349.442 251.714 M331.789 279.199 C 328.654 285.056,324.662 287.177,317.661 286.705 L 310.843 286.245 314.637 281.413 C 319.144 275.671,334.755 273.656,331.789 279.199 M304.833 304.036 C 304.833 305.974,293.182 312.268,289.594 312.268 L 285.455 312.268 290.311 307.850 C 294.504 304.036,304.833 301.323,304.833 304.036 " stroke="none" fill="#000000" fill-rule="evenodd"></path></g></svg>